<svg xmlns="http://www.w3.org/2000/svg" viewBox="0 0 320 140" role="img" aria-label="Logo Corredeiras Vivas Rafting">
  <defs>
    <linearGradient id="logoBg" x1="0" y1="0" x2="1" y2="1">
      <stop offset="0%" stop-color="#16313f"/>
      <stop offset="100%" stop-color="#1f4e5f"/>
    </linearGradient>
  </defs>
  <rect width="320" height="140" rx="14" fill="url(#logoBg)"/>
  <path d="M15 95c18-16 36-16 54 0s36 16 54 0 36-16 54 0 36 16 54 0 36-16 54 0 36 16 54 0" fill="none" stroke="#4da8da" stroke-width="6"/>
  <path d="M200 88 L270 88 L248 108 L222 108 Z" fill="#e85d04"/>
  <ellipse cx="225" cy="82" r="8" fill="#ffd6a5"/>
  <ellipse cx="245" cy="82" r="8" fill="#ffd6a5"/>
  <line x1="235" y1="88" x2="235" y2="62" stroke="#8b5a2b" stroke-width="4"/>
  <polygon points="233,65 255,78 235,76" fill="#f1faee"/>
  <text x="115" y="58" text-anchor="middle" font-family="Arial, Helvetica, sans-serif" font-size="22" fill="#ffffff" font-weight="700">CORREDEIRAS VIVAS</text>
  <text x="115" y="82" text-anchor="middle" font-family="Arial, Helvetica, sans-serif" font-size="14" fill="#4da8da" letter-spacing="2">RAFTING</text>
</svg>
